<svg xmlns="http://www.w3.org/2000/svg" xmlns:xlink="http://www.w3.org/1999/xlink" width="480" zoomAndPan="magnify" viewBox="0 0 360 112.499997" height="150" preserveAspectRatio="xMidYMid meet" version="1.0"><defs><g/><clipPath id="b84f99706e"><path d="M 5 3 L 59 3 L 59 58 L 5 58 Z M 5 3 " clip-rule="nonzero"/></clipPath><clipPath id="3986728e97"><path d="M 0.796875 43.328125 L 35.261719 -8.039062 L 69.101562 14.667969 L 34.636719 66.035156 Z M 0.796875 43.328125 " clip-rule="nonzero"/></clipPath><clipPath id="ad0e20c3eb"><path d="M 0.796875 43.328125 L 35.261719 -8.039062 L 69.101562 14.667969 L 34.636719 66.035156 Z M 0.796875 43.328125 " clip-rule="nonzero"/></clipPath><clipPath id="d4134ef8e6"><path d="M 7 4 L 57 4 L 57 56 L 7 56 Z M 7 4 " clip-rule="nonzero"/></clipPath><clipPath id="aed8dfd4b6"><path d="M 0.796875 43.328125 L 35.261719 -8.039062 L 69.101562 14.667969 L 34.636719 66.035156 Z M 0.796875 43.328125 " clip-rule="nonzero"/></clipPath><clipPath id="e1495fb73e"><path d="M 0.796875 43.328125 L 35.261719 -8.039062 L 69.101562 14.667969 L 34.636719 66.035156 Z M 0.796875 43.328125 " clip-rule="nonzero"/></clipPath><clipPath id="d5fa07aa85"><path d="M 12 43 L 23 43 L 23 48 L 12 48 Z M 12 43 " clip-rule="nonzero"/></clipPath><clipPath id="cd5a9547e3"><path d="M 0.796875 43.328125 L 35.261719 -8.039062 L 69.101562 14.667969 L 34.636719 66.035156 Z M 0.796875 43.328125 " clip-rule="nonzero"/></clipPath><clipPath id="d1c80a0aa0"><path d="M 0.796875 43.328125 L 35.261719 -8.039062 L 69.101562 14.667969 L 34.636719 66.035156 Z M 0.796875 43.328125 " clip-rule="nonzero"/></clipPath><clipPath id="3aa9385179"><path d="M 26 16 L 37 16 L 37 28 L 26 28 Z M 26 16 " clip-rule="nonzero"/></clipPath><clipPath id="66c17107dd"><path d="M 0.796875 43.328125 L 35.261719 -8.039062 L 69.101562 14.667969 L 34.636719 66.035156 Z M 0.796875 43.328125 " clip-rule="nonzero"/></clipPath><clipPath id="7fdb6c27fc"><path d="M 0.796875 43.328125 L 35.261719 -8.039062 L 69.101562 14.667969 L 34.636719 66.035156 Z M 0.796875 43.328125 " clip-rule="nonzero"/></clipPath><clipPath id="214b765dc1"><path d="M 27 13 L 56 13 L 56 39 L 27 39 Z M 27 13 " clip-rule="nonzero"/></clipPath><clipPath id="d5a1828b11"><path d="M 0.796875 43.328125 L 35.261719 -8.039062 L 69.101562 14.667969 L 34.636719 66.035156 Z M 0.796875 43.328125 " clip-rule="nonzero"/></clipPath><clipPath id="a13680861c"><path d="M 0.796875 43.328125 L 35.261719 -8.039062 L 69.101562 14.667969 L 34.636719 66.035156 Z M 0.796875 43.328125 " clip-rule="nonzero"/></clipPath><clipPath id="f49445da92"><path d="M 19 24 L 32 24 L 32 30 L 19 30 Z M 19 24 " clip-rule="nonzero"/></clipPath><clipPath id="10a01a4fe0"><path d="M 0.796875 43.328125 L 35.261719 -8.039062 L 69.101562 14.667969 L 34.636719 66.035156 Z M 0.796875 43.328125 " clip-rule="nonzero"/></clipPath><clipPath id="3c4e0df532"><path d="M 0.796875 43.328125 L 35.261719 -8.039062 L 69.101562 14.667969 L 34.636719 66.035156 Z M 0.796875 43.328125 " clip-rule="nonzero"/></clipPath><clipPath id="d3b270adb8"><path d="M 46 25 L 50 25 L 50 30 L 46 30 Z M 46 25 " clip-rule="nonzero"/></clipPath><clipPath id="43eef754d0"><path d="M 0.796875 43.328125 L 35.261719 -8.039062 L 69.101562 14.667969 L 34.636719 66.035156 Z M 0.796875 43.328125 " clip-rule="nonzero"/></clipPath><clipPath id="ddcbfbc8bc"><path d="M 0.796875 43.328125 L 35.261719 -8.039062 L 69.101562 14.667969 L 34.636719 66.035156 Z M 0.796875 43.328125 " clip-rule="nonzero"/></clipPath><clipPath id="5d60740748"><path d="M 33 17 L 51 17 L 51 32 L 33 32 Z M 33 17 " clip-rule="nonzero"/></clipPath><clipPath id="aa58da6ed5"><path d="M 0.796875 43.328125 L 35.261719 -8.039062 L 69.101562 14.667969 L 34.636719 66.035156 Z M 0.796875 43.328125 " clip-rule="nonzero"/></clipPath><clipPath id="2080e48b97"><path d="M 0.796875 43.328125 L 35.261719 -8.039062 L 69.101562 14.667969 L 34.636719 66.035156 Z M 0.796875 43.328125 " clip-rule="nonzero"/></clipPath><clipPath id="558f70c84d"><path d="M 26 30 L 39 30 L 39 40 L 26 40 Z M 26 30 " clip-rule="nonzero"/></clipPath><clipPath id="c981eda586"><path d="M 0.796875 43.328125 L 35.261719 -8.039062 L 69.101562 14.667969 L 34.636719 66.035156 Z M 0.796875 43.328125 " clip-rule="nonzero"/></clipPath><clipPath id="3fcf9473e4"><path d="M 0.796875 43.328125 L 35.261719 -8.039062 L 69.101562 14.667969 L 34.636719 66.035156 Z M 0.796875 43.328125 " clip-rule="nonzero"/></clipPath><clipPath id="997bc1b28f"><path d="M 18 44 L 24 44 L 24 48 L 18 48 Z M 18 44 " clip-rule="nonzero"/></clipPath><clipPath id="0b1cc9b22b"><path d="M 0.796875 43.328125 L 35.261719 -8.039062 L 69.101562 14.667969 L 34.636719 66.035156 Z M 0.796875 43.328125 " clip-rule="nonzero"/></clipPath><clipPath id="3006d0c2b8"><path d="M 0.796875 43.328125 L 35.261719 -8.039062 L 69.101562 14.667969 L 34.636719 66.035156 Z M 0.796875 43.328125 " clip-rule="nonzero"/></clipPath></defs><g fill="#ffffff" fill-opacity="1"><g transform="translate(25.239246, 84.340609)"><g><path d="M 26.265625 0.9375 C 19.316406 0.9375 13.914062 -0.953125 10.0625 -4.734375 C 6.207031 -8.523438 4.28125 -13.898438 4.28125 -20.859375 L 4.28125 -46.796875 L 17.515625 -46.796875 L 17.515625 -21.25 C 17.515625 -13.769531 20.476562 -10.03125 26.40625 -10.03125 C 32.289062 -10.03125 35.234375 -13.769531 35.234375 -21.25 L 35.234375 -46.796875 L 48.265625 -46.796875 L 48.265625 -20.859375 C 48.265625 -13.898438 46.335938 -8.523438 42.484375 -4.734375 C 38.628906 -0.953125 33.222656 0.9375 26.265625 0.9375 Z M 26.265625 0.9375 "/></g></g></g><g fill="#ffffff" fill-opacity="1"><g transform="translate(72.694079, 84.340609)"><g><path d="M 16.171875 -31.890625 C 17.460938 -33.535156 19.144531 -34.769531 21.21875 -35.59375 C 23.289062 -36.414062 25.664062 -36.828125 28.34375 -36.828125 L 28.34375 -25.40625 C 27.1875 -25.53125 26.226562 -25.59375 25.46875 -25.59375 C 22.75 -25.59375 20.617188 -24.859375 19.078125 -23.390625 C 17.546875 -21.921875 16.78125 -19.671875 16.78125 -16.640625 L 16.78125 0 L 4.078125 0 L 4.078125 -36.234375 L 16.171875 -36.234375 Z M 16.171875 -31.890625 "/></g></g></g><g fill="#ffffff" fill-opacity="1"><g transform="translate(97.222902, 84.340609)"><g><path d="M 26.875 -36.828125 C 30.164062 -36.828125 33.160156 -36.066406 35.859375 -34.546875 C 38.554688 -33.035156 40.695312 -30.863281 42.28125 -28.03125 C 43.863281 -25.207031 44.65625 -21.925781 44.65625 -18.1875 C 44.65625 -14.4375 43.863281 -11.132812 42.28125 -8.28125 C 40.695312 -5.4375 38.554688 -3.242188 35.859375 -1.703125 C 33.160156 -0.160156 30.164062 0.609375 26.875 0.609375 C 22.101562 0.609375 18.535156 -0.796875 16.171875 -3.609375 L 16.171875 0 L 4.078125 0 L 4.078125 -49.59375 L 16.78125 -49.59375 L 16.78125 -33.09375 C 19.226562 -35.582031 22.59375 -36.828125 26.875 -36.828125 Z M 24.203125 -9.484375 C 26.429688 -9.484375 28.253906 -10.253906 29.671875 -11.796875 C 31.097656 -13.335938 31.8125 -15.46875 31.8125 -18.1875 C 31.8125 -20.851562 31.097656 -22.941406 29.671875 -24.453125 C 28.253906 -25.972656 26.429688 -26.734375 24.203125 -26.734375 C 21.972656 -26.734375 20.144531 -25.972656 18.71875 -24.453125 C 17.289062 -22.941406 16.578125 -20.851562 16.578125 -18.1875 C 16.578125 -15.46875 17.289062 -13.335938 18.71875 -11.796875 C 20.144531 -10.253906 21.972656 -9.484375 24.203125 -9.484375 Z M 24.203125 -9.484375 "/></g></g></g><g fill="#ffffff" fill-opacity="1"><g transform="translate(138.595334, 84.340609)"><g><path d="M 19.515625 -36.828125 C 25.535156 -36.828125 30.125 -35.457031 33.28125 -32.71875 C 36.445312 -29.976562 38.03125 -25.78125 38.03125 -20.125 L 38.03125 0 L 26.203125 0 L 26.203125 -4.671875 C 24.378906 -1.148438 20.8125 0.609375 15.5 0.609375 C 12.695312 0.609375 10.269531 0.117188 8.21875 -0.859375 C 6.164062 -1.847656 4.613281 -3.175781 3.5625 -4.84375 C 2.519531 -6.519531 2 -8.425781 2 -10.5625 C 2 -13.988281 3.3125 -16.648438 5.9375 -18.546875 C 8.570312 -20.441406 12.628906 -21.390625 18.109375 -21.390625 L 25.328125 -21.390625 C 25.109375 -25.222656 22.546875 -27.140625 17.640625 -27.140625 C 15.910156 -27.140625 14.148438 -26.859375 12.359375 -26.296875 C 10.578125 -25.742188 9.066406 -24.976562 7.828125 -24 L 3.546875 -32.625 C 5.546875 -33.957031 7.984375 -34.988281 10.859375 -35.71875 C 13.734375 -36.457031 16.617188 -36.828125 19.515625 -36.828125 Z M 19.046875 -7.421875 C 20.515625 -7.421875 21.804688 -7.773438 22.921875 -8.484375 C 24.035156 -9.203125 24.835938 -10.25 25.328125 -11.625 L 25.328125 -14.765625 L 19.859375 -14.765625 C 16.148438 -14.765625 14.296875 -13.539062 14.296875 -11.09375 C 14.296875 -9.976562 14.71875 -9.085938 15.5625 -8.421875 C 16.414062 -7.753906 17.578125 -7.421875 19.046875 -7.421875 Z M 19.046875 -7.421875 "/></g></g></g><g fill="#ffffff" fill-opacity="1"><g transform="translate(175.489501, 84.340609)"><g><path d="M 27.671875 -36.828125 C 32.171875 -36.828125 35.789062 -35.488281 38.53125 -32.8125 C 41.269531 -30.144531 42.640625 -26.113281 42.640625 -20.71875 L 42.640625 0 L 29.953125 0 L 29.953125 -18.65625 C 29.953125 -23.59375 27.96875 -26.0625 24 -26.0625 C 21.8125 -26.0625 20.0625 -25.347656 18.75 -23.921875 C 17.4375 -22.503906 16.78125 -20.367188 16.78125 -17.515625 L 16.78125 0 L 4.078125 0 L 4.078125 -36.234375 L 16.171875 -36.234375 L 16.171875 -32.28125 C 17.597656 -33.75 19.289062 -34.875 21.25 -35.65625 C 23.21875 -36.4375 25.359375 -36.828125 27.671875 -36.828125 Z M 27.671875 -36.828125 "/></g></g></g><g fill="#ffffff" fill-opacity="1"><g transform="translate(216.928767, 84.340609)"><g><path d="M 42.25 -10.234375 L 42.25 0 L 4.671875 0 L 4.671875 -46.796875 L 41.375 -46.796875 L 41.375 -36.5625 L 17.78125 -36.5625 L 17.78125 -28.671875 L 38.5625 -28.671875 L 38.5625 -18.78125 L 17.78125 -18.78125 L 17.78125 -10.234375 Z M 42.25 -10.234375 "/></g></g></g><g fill="#ffffff" fill-opacity="1"><g transform="translate(256.763881, 84.340609)"><g><path d="M 19.515625 -36.828125 C 25.535156 -36.828125 30.125 -35.457031 33.28125 -32.71875 C 36.445312 -29.976562 38.03125 -25.78125 38.03125 -20.125 L 38.03125 0 L 26.203125 0 L 26.203125 -4.671875 C 24.378906 -1.148438 20.8125 0.609375 15.5 0.609375 C 12.695312 0.609375 10.269531 0.117188 8.21875 -0.859375 C 6.164062 -1.847656 4.613281 -3.175781 3.5625 -4.84375 C 2.519531 -6.519531 2 -8.425781 2 -10.5625 C 2 -13.988281 3.3125 -16.648438 5.9375 -18.546875 C 8.570312 -20.441406 12.628906 -21.390625 18.109375 -21.390625 L 25.328125 -21.390625 C 25.109375 -25.222656 22.546875 -27.140625 17.640625 -27.140625 C 15.910156 -27.140625 14.148438 -26.859375 12.359375 -26.296875 C 10.578125 -25.742188 9.066406 -24.976562 7.828125 -24 L 3.546875 -32.625 C 5.546875 -33.957031 7.984375 -34.988281 10.859375 -35.71875 C 13.734375 -36.457031 16.617188 -36.828125 19.515625 -36.828125 Z M 19.046875 -7.421875 C 20.515625 -7.421875 21.804688 -7.773438 22.921875 -8.484375 C 24.035156 -9.203125 24.835938 -10.25 25.328125 -11.625 L 25.328125 -14.765625 L 19.859375 -14.765625 C 16.148438 -14.765625 14.296875 -13.539062 14.296875 -11.09375 C 14.296875 -9.976562 14.71875 -9.085938 15.5625 -8.421875 C 16.414062 -7.753906 17.578125 -7.421875 19.046875 -7.421875 Z M 19.046875 -7.421875 "/></g></g></g><g fill="#ffffff" fill-opacity="1"><g transform="translate(293.658047, 84.340609)"><g><path d="M 29.078125 -1.46875 C 28.003906 -0.800781 26.695312 -0.289062 25.15625 0.0625 C 23.625 0.425781 21.988281 0.609375 20.25 0.609375 C 15.53125 0.609375 11.898438 -0.546875 9.359375 -2.859375 C 6.816406 -5.179688 5.546875 -8.640625 5.546875 -13.234375 L 5.546875 -25.40625 L 0.265625 -25.40625 L 0.265625 -34.890625 L 5.546875 -34.890625 L 5.546875 -44.3125 L 18.25 -44.3125 L 18.25 -34.890625 L 26.53125 -34.890625 L 26.53125 -25.40625 L 18.25 -25.40625 L 18.25 -13.375 C 18.25 -12.082031 18.59375 -11.066406 19.28125 -10.328125 C 19.976562 -9.585938 20.90625 -9.21875 22.0625 -9.21875 C 23.53125 -9.21875 24.820312 -9.597656 25.9375 -10.359375 Z M 29.078125 -1.46875 "/></g></g></g><g fill="#ffffff" fill-opacity="1"><g transform="translate(318.454235, 84.340609)"><g><path d="M 17.25 0.609375 C 14.21875 0.609375 11.226562 0.265625 8.28125 -0.421875 C 5.34375 -1.117188 2.984375 -2.023438 1.203125 -3.140625 L 5.015625 -11.828125 C 6.660156 -10.804688 8.617188 -9.992188 10.890625 -9.390625 C 13.160156 -8.785156 15.410156 -8.484375 17.640625 -8.484375 C 19.691406 -8.484375 21.148438 -8.695312 22.015625 -9.125 C 22.890625 -9.550781 23.328125 -10.164062 23.328125 -10.96875 C 23.328125 -11.769531 22.800781 -12.335938 21.75 -12.671875 C 20.707031 -13.003906 19.050781 -13.328125 16.78125 -13.640625 C 13.882812 -13.992188 11.421875 -14.457031 9.390625 -15.03125 C 7.359375 -15.613281 5.609375 -16.6875 4.140625 -18.25 C 2.671875 -19.8125 1.9375 -21.992188 1.9375 -24.796875 C 1.9375 -27.117188 2.625 -29.179688 4 -30.984375 C 5.382812 -32.785156 7.398438 -34.207031 10.046875 -35.25 C 12.703125 -36.300781 15.878906 -36.828125 19.578125 -36.828125 C 22.210938 -36.828125 24.820312 -36.5625 27.40625 -36.03125 C 29.988281 -35.5 32.148438 -34.738281 33.890625 -33.75 L 30.078125 -25.140625 C 26.867188 -26.921875 23.394531 -27.8125 19.65625 -27.8125 C 17.644531 -27.8125 16.171875 -27.578125 15.234375 -27.109375 C 14.304688 -26.640625 13.84375 -26.023438 13.84375 -25.265625 C 13.84375 -24.421875 14.351562 -23.832031 15.375 -23.5 C 16.394531 -23.164062 18.085938 -22.816406 20.453125 -22.453125 C 23.441406 -22.015625 25.914062 -21.503906 27.875 -20.921875 C 29.832031 -20.335938 31.535156 -19.273438 32.984375 -17.734375 C 34.429688 -16.203125 35.15625 -14.054688 35.15625 -11.296875 C 35.15625 -9.023438 34.460938 -6.984375 33.078125 -5.171875 C 31.703125 -3.367188 29.664062 -1.953125 26.96875 -0.921875 C 24.269531 0.0976562 21.03125 0.609375 17.25 0.609375 Z M 17.25 0.609375 "/></g></g></g><g clip-path="url(#b84f99706e)"><g clip-path="url(#3986728e97)"><g clip-path="url(#ad0e20c3eb)"><path fill="#1b2123" d="M 54.238281 35.902344 C 47.703125 38.601562 40.984375 42.925781 35.316406 48.074219 C 32.496094 50.636719 30.007812 53.335938 27.914062 56.09375 L 26.847656 57.503906 L 22.402344 47.542969 C 20.433594 48.863281 16.113281 51.160156 11.503906 49.714844 C 9.273438 49.015625 7.785156 47.882812 6.960938 46.257812 C 5.882812 44.125 4.429688 37.945312 10.296875 33.058594 C 14.585938 29.160156 21.386719 28.257812 22.800781 28.109375 C 23.261719 27.816406 23.683594 27.5 24.078125 27.140625 C 25.664062 25.699219 26.609375 23.761719 27.703125 21.519531 C 29.269531 18.3125 31.214844 14.324219 35.835938 10.128906 C 36.402344 9.609375 37.007812 9.09375 37.632812 8.59375 C 43.097656 4.214844 47.464844 2.632812 50.984375 3.757812 C 52.546875 4.257812 56.59375 7.007812 58.039062 12.21875 C 58.871094 14.972656 57.988281 17.898438 56.421875 20.832031 C 55.683594 22.214844 54.257812 24.359375 51.660156 26.71875 C 50.949219 27.363281 50.308594 27.882812 49.828125 28.253906 L 55.515625 35.371094 Z M 54.238281 35.902344 " fill-opacity="1" fill-rule="nonzero"/></g></g></g><g clip-path="url(#d4134ef8e6)"><g clip-path="url(#aed8dfd4b6)"><g clip-path="url(#e1495fb73e)"><path fill="#d9d9d9" d="M 56.527344 12.546875 C 57.429688 15.542969 56.632812 18.382812 55.238281 20.789062 C 52.738281 25.105469 48.320312 28.042969 48.320312 28.042969 L 53.824219 34.929688 C 51.296875 35.972656 48.746094 37.253906 46.242188 38.726562 C 38.9375 43.019531 32.007812 48.945312 27.074219 55.453125 L 22.820312 45.917969 C 22.820312 45.917969 17.460938 50.488281 11.808594 48.710938 C 8.214844 47.585938 6.109375 43.816406 7.929688 38.035156 C 10.613281 30.363281 23.152344 29.132812 23.152344 29.132812 C 29.398438 25.425781 27.734375 17.882812 38.296875 9.417969 C 48.824219 0.980469 54.011719 4.183594 56.527344 12.546875 Z M 56.527344 12.546875 " fill-opacity="1" fill-rule="nonzero"/></g></g></g><g clip-path="url(#d5fa07aa85)"><g clip-path="url(#cd5a9547e3)"><g clip-path="url(#d1c80a0aa0)"><path fill="#545454" d="M 22.171875 46.089844 C 22.171875 46.089844 17.898438 48.222656 15.375 47.960938 C 12.792969 47.691406 11.777344 46.515625 12.277344 46.46875 C 12.773438 46.425781 15.230469 47.203125 16.34375 46.054688 C 17.457031 44.90625 14.578125 44.109375 15.945312 43.683594 C 17.3125 43.261719 19.285156 43.65625 20.539062 44.292969 C 21.792969 44.929688 22.171875 46.089844 22.171875 46.089844 Z M 22.171875 46.089844 " fill-opacity="1" fill-rule="nonzero"/></g></g></g><g clip-path="url(#3aa9385179)"><g clip-path="url(#66c17107dd)"><g clip-path="url(#7fdb6c27fc)"><path fill="#545454" d="M 26.710938 27.226562 C 26.710938 27.226562 29.460938 25.320312 31.320312 21.628906 C 33.183594 17.9375 34.910156 15.652344 35.695312 16.511719 C 36.476562 17.375 36.535156 19.609375 33.648438 22.945312 C 30.757812 26.285156 26.710938 27.226562 26.710938 27.226562 Z M 26.710938 27.226562 " fill-opacity="1" fill-rule="nonzero"/></g></g></g><g clip-path="url(#214b765dc1)"><g clip-path="url(#d5a1828b11)"><g clip-path="url(#a13680861c)"><path fill="#545454" d="M 55.777344 17.09375 C 55.769531 17.175781 55.476562 19.367188 55.238281 20.789062 C 52.738281 25.105469 48.320312 28.042969 48.320312 28.042969 L 53.824219 34.929688 C 51.296875 35.972656 48.746094 37.253906 46.242188 38.726562 C 46.648438 37.886719 46.753906 36.828125 46.152344 35.535156 C 44.363281 31.699219 42.433594 29.988281 42.433594 29.988281 C 42.433594 29.988281 40.21875 35.078125 37.132812 37.113281 C 34.066406 39.132812 27.371094 38.390625 27.265625 38.378906 C 27.324219 38.34375 30.453125 36.632812 31.90625 35.125 C 33.371094 33.601562 33.371094 33.601562 33.371094 33.601562 C 30.972656 32.675781 28.757812 31.730469 30.09375 30.414062 C 30.09375 30.414062 37.664062 31.429688 43.683594 23.84375 C 49.703125 16.257812 47.53125 13.03125 50.410156 13.691406 C 53.289062 14.351562 51.699219 21.378906 53.339844 20.464844 C 54.949219 19.570312 55.75 17.179688 55.777344 17.09375 Z M 55.777344 17.09375 " fill-opacity="1" fill-rule="nonzero"/></g></g></g><g clip-path="url(#f49445da92)"><g clip-path="url(#10a01a4fe0)"><g clip-path="url(#3c4e0df532)"><path fill="#1b2123" d="M 19.5625 29.660156 C 19.5625 29.660156 23.773438 29.503906 27.074219 28.261719 C 30.375 27.023438 31.910156 24.261719 31.910156 24.261719 C 31.910156 24.261719 28.980469 26.335938 26.710938 27.226562 C 24.441406 28.117188 23.929688 28.191406 23.929688 28.191406 Z M 19.5625 29.660156 " fill-opacity="1" fill-rule="nonzero"/></g></g></g><g clip-path="url(#d3b270adb8)"><g clip-path="url(#43eef754d0)"><g clip-path="url(#ddcbfbc8bc)"><path fill="#1b2123" d="M 46.597656 25.058594 C 46.679688 25.738281 48.3125 27.988281 49.605469 29.636719 L 49.828125 28.253906 C 48.855469 27.097656 48.054688 26.054688 47.394531 25.105469 Z M 46.597656 25.058594 " fill-opacity="1" fill-rule="nonzero"/></g></g></g><g clip-path="url(#5d60740748)"><g clip-path="url(#aa58da6ed5)"><g clip-path="url(#2080e48b97)"><path fill="#1b2123" d="M 50.757812 17.121094 C 50.757812 17.121094 50.917969 21.484375 44.882812 26.324219 C 38.851562 31.164062 33.726562 31.953125 33.726562 31.953125 C 33.726562 31.953125 39.054688 32.128906 44.890625 28.058594 C 48.5 25.421875 47.542969 26.113281 49.308594 23.710938 C 51.074219 21.304688 50.757812 17.121094 50.757812 17.121094 Z M 50.757812 17.121094 " fill-opacity="1" fill-rule="nonzero"/></g></g></g><g clip-path="url(#558f70c84d)"><g clip-path="url(#c981eda586)"><g clip-path="url(#3fcf9473e4)"><path fill="#1b2123" d="M 36.949219 31.300781 C 35.710938 34.800781 31.476562 38.375 26.914062 39.292969 C 26.914062 39.292969 28.710938 39.890625 32.683594 37.871094 C 36.65625 35.851562 38.941406 30.59375 38.941406 30.59375 Z M 36.949219 31.300781 " fill-opacity="1" fill-rule="nonzero"/></g></g></g><g clip-path="url(#997bc1b28f)"><g clip-path="url(#0b1cc9b22b)"><g clip-path="url(#3006d0c2b8)"><path fill="#1b2123" d="M 23.265625 47.207031 C 23.214844 46.898438 23.011719 45.910156 22.371094 45.203125 C 21.730469 44.496094 18.082031 44.175781 18.082031 44.175781 C 18.082031 44.175781 20.484375 45.039062 21.253906 45.628906 C 22.023438 46.222656 22.402344 47.542969 22.402344 47.542969 Z M 23.265625 47.207031 " fill-opacity="1" fill-rule="nonzero"/></g></g></g></svg>